<svg xmlns="http://www.w3.org/2000/svg" width="500" height="500" viewBox="0 0 500 500">
<g>
<path d="M 94.70 331.00 C91.80,331.00 91.06,331.42 90.71,333.25 C90.33,335.18 90.25,335.11 90.14,332.75 C90.01,330.25 90.32,330.00 93.50,330.00 C95.94,330.00 97.00,329.55 97.00,328.50 C97.00,327.45 95.94,327.00 93.50,327.00 C90.43,327.00 90.00,326.69 90.00,324.50 C90.00,322.25 90.40,322.00 94.00,322.00 C97.45,322.00 98.02,321.69 98.12,319.75 C98.21,317.90 98.32,317.83 98.71,319.36 C98.97,320.38 98.74,321.66 98.20,322.20 C97.66,322.74 97.45,324.94 97.74,327.09 L 98.26 331.00 ZM 62.38 325.25 C64.06,326.92 63.95,327.00 60.07,327.00 C56.44,327.00 56.00,326.74 56.00,324.60 C56.00,322.48 56.52,322.16 60.50,321.84 C65.02,321.48 66.91,322.58 62.81,323.18 C60.73,323.49 60.71,323.58 62.38,325.25 ZM 147.52 326.98 C147.17,327.54 146.01,328.00 144.94,328.00 C143.41,328.00 143.00,327.31 143.02,324.75 C143.03,322.38 143.28,321.90 143.95,322.95 C144.45,323.75 144.65,324.76 144.38,325.20 C143.91,325.95 145.46,326.42 147.32,326.09 C147.78,326.01 147.86,326.41 147.52,326.98 Z" fill="rgb(15,31,56)"/>
<path d="M 0.00 0.00 L 500.00 0.00 L 500.00 500.00 L 0.00 500.00 ZM 307.29 292.90 C311.27,293.84 323.37,293.50 325.17,292.40 C326.97,291.28 325.88,289.25 323.47,289.25 C318.18,289.25 315.30,284.49 305.15,259.00 C301.76,250.48 297.50,241.03 295.68,238.01 C289.62,227.91 281.74,224.00 267.45,224.00 C263.90,224.00 261.00,223.74 261.00,223.42 C261.00,223.10 270.08,213.65 281.18,202.42 C301.54,181.80 307.13,177.39 315.84,175.04 C318.31,174.38 320.00,173.33 320.00,172.46 C320.00,171.25 317.61,171.00 306.00,171.00 C298.30,171.00 292.00,171.37 292.00,171.83 C292.00,172.29 293.12,173.26 294.50,174.00 C297.73,175.73 297.65,177.60 294.12,183.05 C290.08,189.27 250.41,229.30 248.81,228.77 C247.80,228.43 247.43,223.38 247.21,206.42 C246.88,181.43 247.13,179.03 250.51,175.82 C255.23,171.35 254.24,171.00 237.00,171.00 C220.23,171.00 218.75,171.44 223.37,175.08 C224.71,176.13 226.24,178.90 226.87,181.42 C228.32,187.14 228.43,272.42 227.00,280.11 C226.33,283.77 225.20,286.21 223.50,287.70 C222.13,288.91 221.00,290.38 221.00,290.95 C221.00,291.64 226.51,292.00 237.00,292.00 C254.47,292.00 255.07,291.76 250.25,286.74 L 247.50 283.87 L 246.50 237.93 L 251.66 232.84 L 256.83 227.74 L 262.62 228.22 C267.96,228.66 268.71,229.04 272.45,233.20 C274.68,235.68 277.71,240.58 279.18,244.10 C280.66,247.62 284.88,257.81 288.56,266.75 C296.32,285.60 300.37,291.26 307.29,292.90 ZM 157.75 279.99 C158.76,280.61 162.57,280.91 166.72,280.69 C185.16,279.71 201.27,264.42 209.09,240.50 C211.28,233.79 211.40,231.74 211.94,191.50 C212.44,154.45 212.71,149.13 214.22,146.37 C215.16,144.65 216.62,142.98 217.46,142.65 C218.31,142.33 219.00,141.37 219.00,140.53 C219.00,139.22 216.70,139.00 203.00,139.00 C192.51,139.00 187.00,139.36 187.00,140.05 C187.00,140.62 188.15,142.09 189.55,143.30 C193.66,146.84 194.16,154.70 193.75,208.81 C193.36,260.03 193.14,262.49 188.70,267.47 C186.51,269.93 186.47,269.93 180.00,268.50 C176.43,267.72 170.88,267.05 167.67,267.04 C162.54,267.00 161.50,267.35 158.92,269.92 C155.54,273.31 154.96,278.26 157.75,279.99 ZM 433.25 339.39 C433.94,339.70 436.52,339.74 439.00,339.48 C446.77,338.68 450.81,331.26 447.63,323.66 C445.88,319.46 442.99,318.00 436.43,318.00 L 432.00 318.00 L 432.00 328.42 C432.00,335.79 432.37,339.00 433.25,339.39 ZM 321.58 334.75 C322.01,338.10 322.53,339.00 324.06,339.00 C325.61,339.00 326.00,338.30 326.00,335.50 C326.00,333.27 326.48,332.00 327.31,332.00 C328.04,332.00 329.38,333.58 330.30,335.50 C331.55,338.13 332.59,339.00 334.48,339.00 C337.58,339.00 337.58,338.88 334.58,334.12 C332.37,330.62 332.29,330.14 333.73,328.70 C335.85,326.58 335.60,320.91 333.31,319.24 C332.22,318.44 329.51,318.03 326.50,318.21 L 321.50 318.50 L 321.27 324.50 C321.14,327.80 321.28,332.41 321.58,334.75 ZM 139.22 328.75 L 138.93 339.00 L 141.47 339.00 C143.76,339.00 144.00,338.61 144.00,335.00 C144.00,332.80 144.34,331.00 144.75,331.01 C145.16,331.01 146.53,332.81 147.78,335.01 C149.51,338.03 150.68,339.00 152.62,339.00 L 155.19 339.00 L 152.61 334.61 C150.37,330.78 150.23,330.05 151.52,328.98 C152.33,328.31 153.00,326.25 153.00,324.40 C153.00,319.97 149.75,317.76 143.83,318.19 L 139.50 318.50 ZM 94.70 331.00 L 98.26 331.00 L 97.74 327.09 C97.45,324.94 97.66,322.74 98.20,322.20 C98.74,321.66 98.97,320.38 98.71,319.36 C98.32,317.83 98.21,317.90 98.12,319.75 C98.02,321.69 97.45,322.00 94.00,322.00 C97.33,322.00 98.00,321.67 98.00,320.00 C98.00,318.22 97.33,318.00 92.00,318.00 L 86.00 318.00 L 86.00 339.00 L 92.50 339.00 C98.33,339.00 99.00,338.79 99.00,337.00 C99.00,335.30 98.33,335.00 94.50,335.00 C92.10,335.00 90.97,334.93 90.45,334.43 C90.51,334.21 90.60,333.82 90.71,333.25 C91.06,331.42 91.80,331.00 94.70,331.00 ZM 62.38 325.25 C60.71,323.58 60.73,323.49 62.81,323.18 C66.91,322.58 65.02,321.48 60.50,321.84 C56.54,322.16 56.01,322.47 56.00,324.56 C56.00,322.40 56.49,322.08 60.24,321.81 C63.38,321.58 64.57,321.03 64.82,319.70 C65.13,318.10 64.48,317.93 58.83,318.20 L 52.50 318.50 L 52.22 328.75 L 51.93 339.00 L 58.87 339.00 C65.32,339.00 65.78,338.86 65.29,337.00 C64.88,335.43 63.93,335.00 60.88,335.00 C57.67,335.00 57.00,334.66 57.00,333.00 C57.00,331.38 57.67,331.00 60.50,331.00 C63.33,331.00 64.00,330.62 64.00,329.00 C64.00,327.33 63.33,327.00 60.00,327.00 C57.75,327.00 56.74,326.90 56.31,326.27 C56.75,326.90 57.77,327.00 60.07,327.00 C63.95,327.00 64.06,326.92 62.38,325.25 ZM 306.01 339.11 C310.44,340.34 312.05,340.05 314.55,337.55 C316.77,335.32 317.00,334.29 317.00,326.55 C317.00,318.67 316.84,318.00 315.00,318.00 C313.18,318.00 313.00,318.67 313.00,325.31 C313.00,333.73 311.36,337.26 308.31,335.39 C306.84,334.50 306.44,332.72 306.21,326.08 C305.93,318.26 305.81,317.89 303.71,318.19 C301.68,318.47 301.48,319.12 301.24,326.00 C300.95,334.50 302.25,338.06 306.01,339.11 ZM 266.22 328.75 L 265.93 339.00 L 272.47 339.00 C278.33,339.00 279.00,338.80 279.00,337.00 C279.00,335.33 278.33,335.00 275.00,335.00 C271.67,335.00 271.00,334.67 271.00,333.00 C271.00,331.38 271.67,331.00 274.50,331.00 C277.54,331.00 278.00,330.68 278.00,328.56 C278.00,326.34 277.70,326.17 274.50,326.69 C271.44,327.19 271.00,327.00 271.00,325.19 C271.00,323.52 271.72,323.06 274.75,322.81 C277.79,322.56 278.56,322.06 278.83,320.20 C279.14,317.98 278.93,317.91 272.83,318.20 L 266.50 318.50 ZM 224.19 339.33 C227.51,340.03 232.94,339.29 234.59,337.93 C236.34,336.48 236.43,331.91 234.75,329.85 C234.06,329.00 231.99,327.27 230.14,326.01 C227.21,324.00 227.00,323.58 228.47,322.76 C229.40,322.24 231.03,322.04 232.09,322.31 C234.60,322.97 236.76,319.50 234.40,318.60 C231.10,317.34 225.97,318.03 224.00,320.00 C221.05,322.95 221.55,325.69 225.73,329.52 C229.68,333.14 229.50,334.56 225.01,335.17 C221.72,335.61 221.11,338.68 224.19,339.33 ZM 188.76 328.50 L 185.07 339.00 L 187.42 339.00 C188.93,339.00 189.95,338.28 190.29,337.00 C190.67,335.53 191.65,335.00 194.00,335.00 C196.35,335.00 197.33,335.53 197.71,337.00 C198.06,338.32 199.07,339.00 200.72,339.00 C202.29,339.00 203.04,338.54 202.76,337.75 C202.51,337.06 200.82,332.34 199.01,327.25 C194.60,314.82 193.51,314.95 188.76,328.50 ZM 250.75 339.31 C258.09,341.23 264.03,336.97 261.92,331.29 C261.47,330.08 259.26,327.93 257.01,326.51 C252.37,323.58 252.63,321.62 257.59,322.20 C259.89,322.47 261.12,322.13 261.51,321.13 C262.73,317.92 255.16,316.80 251.17,319.60 C247.44,322.21 248.52,326.90 253.50,329.69 C255.84,331.00 257.50,332.67 257.50,333.71 C257.50,335.19 256.77,335.45 253.25,335.23 C249.61,335.00 249.00,335.25 249.00,336.91 C249.00,337.98 249.79,339.06 250.75,339.31 ZM 107.38 338.60 C110.13,339.83 115.54,339.79 116.80,338.53 C117.05,338.29 116.98,337.38 116.65,336.52 C116.23,335.43 115.31,335.14 113.61,335.56 C107.98,336.98 104.33,326.99 109.22,323.56 C110.44,322.70 112.47,322.00 113.72,322.00 C114.98,322.00 116.00,321.81 116.00,321.58 C116.00,321.35 116.27,320.45 116.61,319.58 C117.10,318.30 116.44,318.00 113.04,318.00 C107.83,318.00 105.44,319.25 103.51,322.98 C100.53,328.74 102.43,336.38 107.38,338.60 ZM 173.48 338.60 C178.77,340.91 183.00,340.10 183.00,336.78 C183.00,335.13 182.55,334.90 180.39,335.44 C178.72,335.86 176.91,335.51 175.32,334.48 C173.27,333.13 172.90,332.17 173.10,328.68 C173.42,323.28 174.49,322.00 178.62,322.00 C181.33,322.00 182.00,321.61 182.00,320.00 C182.00,318.33 181.33,318.00 177.92,318.00 C172.22,318.00 168.00,322.20 168.00,327.88 C168.00,333.37 169.87,337.03 173.48,338.60 ZM 355.00 331.07 C355.00,338.86 355.04,339.00 357.50,339.00 C359.96,339.00 360.00,338.86 360.00,331.08 L 360.00 323.16 L 363.00 322.50 C365.09,322.04 366.00,321.25 366.00,319.88 C366.00,318.07 365.38,317.94 357.75,318.21 C350.26,318.47 349.50,318.69 349.50,320.50 C349.50,321.94 350.27,322.59 352.25,322.82 C354.99,323.13 355.00,323.15 355.00,331.07 ZM 373.98 334.75 C374.00,338.61 374.23,339.00 376.50,339.00 C378.75,339.00 379.00,338.60 379.00,334.97 C379.00,332.48 380.15,328.67 382.01,324.97 L 385.03 319.00 L 382.70 319.00 C381.00,319.00 379.89,320.01 378.56,322.75 L 376.76 326.50 L 374.68 322.25 C373.13,319.08 372.02,318.00 370.30,318.00 C367.34,318.00 367.40,318.58 370.98,325.09 C372.96,328.67 373.97,331.94 373.98,334.75 ZM 288.36 339.01 C292.89,340.84 297.00,339.82 297.00,336.87 C297.00,335.34 296.51,335.08 294.55,335.58 C292.73,336.03 291.44,335.53 289.55,333.64 C284.86,328.95 287.25,322.00 293.56,322.00 C296.33,322.00 297.00,321.61 297.00,320.00 C297.00,318.33 296.33,318.00 292.92,318.00 C286.85,318.00 283.00,322.15 283.00,328.70 C283.00,333.97 284.89,337.61 288.36,339.01 ZM 126.00 331.07 C126.00,338.28 126.18,339.00 127.96,339.00 C129.71,339.00 129.95,338.18 130.21,331.29 C130.48,324.00 130.63,323.55 133.00,323.00 C134.58,322.63 135.62,321.61 135.82,320.21 C136.13,318.09 135.83,318.00 128.00,318.00 C120.13,318.00 119.87,318.07 120.18,320.25 C120.41,321.86 121.28,322.59 123.25,322.82 C125.99,323.13 126.00,323.15 126.00,331.07 ZM 419.00 331.07 C419.00,338.33 419.17,339.00 421.00,339.00 C422.83,339.00 423.00,338.33 423.00,331.00 C423.00,323.78 423.19,323.00 424.92,323.00 C428.32,323.00 429.80,321.96 429.27,319.94 C428.83,318.23 427.84,318.00 420.81,318.00 C413.14,318.00 412.87,318.08 413.18,320.25 C413.41,321.86 414.28,322.59 416.25,322.82 C418.99,323.13 419.00,323.15 419.00,331.07 ZM 69.22 328.75 L 68.93 339.00 L 75.97 339.00 C82.33,339.00 83.00,338.81 83.00,337.00 C83.00,335.30 82.33,335.00 78.50,335.00 L 74.00 335.00 L 74.00 326.43 C74.00,318.12 73.93,317.87 71.75,318.18 C69.61,318.48 69.49,318.98 69.22,328.75 ZM 397.22 328.75 L 396.93 339.00 L 403.97 339.00 C410.33,339.00 411.00,338.81 411.00,337.00 C411.00,335.30 410.33,335.00 406.54,335.00 L 402.08 335.00 L 401.79 326.75 C401.53,319.26 401.31,318.50 399.50,318.50 C397.65,318.50 397.48,319.26 397.22,328.75 ZM 206.00 328.50 L 206.00 339.00 L 212.38 339.00 C217.87,339.00 218.84,338.73 219.28,337.05 C219.72,335.35 219.19,335.06 215.14,334.80 L 210.50 334.50 L 210.39 330.50 C210.13,320.80 210.09,318.62 209.17,318.14 C208.90,318.00 208.56,318.00 208.12,318.00 C208.08,318.00 208.04,318.00 208.00,318.00 C206.13,318.00 206.00,318.67 206.00,328.50 ZM 341.00 318.00 L 341.00 339.00 L 346.00 339.00 L 346.00 318.00 ZM 158.82 336.75 C159.02,338.20 159.83,339.00 161.07,339.00 C162.85,339.00 163.00,338.21 163.00,328.50 C163.00,318.80 162.85,318.00 161.07,318.00 C159.35,318.00 159.11,318.88 158.82,326.25 C158.65,330.79 158.64,335.51 158.82,336.75 ZM 441.02 334.99 C437.52,336.86 437.00,336.17 437.00,329.61 C437.00,323.03 438.09,321.33 441.46,322.62 C444.82,323.91 444.50,333.13 441.02,334.99 ZM 329.69 326.75 C328.43,328.43 327.06,328.33 326.36,326.50 C325.48,324.19 326.79,321.81 328.75,322.19 C330.68,322.56 331.14,324.80 329.69,326.75 ZM 147.82 324.75 C147.76,325.27 147.66,325.72 147.52,326.09 C147.47,326.08 147.40,326.08 147.32,326.09 C145.46,326.42 143.91,325.95 144.38,325.20 C144.65,324.76 144.45,323.75 143.95,322.95 C143.79,322.70 143.65,322.53 143.54,322.46 C143.92,322.10 144.54,322.00 145.57,322.00 C147.78,322.00 148.09,322.38 147.82,324.75 ZM 195.29 329.00 C195.67,330.46 195.32,331.00 194.00,331.00 C192.68,331.00 192.33,330.46 192.71,329.00 C193.00,327.90 193.58,327.00 194.00,327.00 C194.42,327.00 195.00,327.90 195.29,329.00 ZM 90.23 334.13 C90.04,333.76 90.00,333.24 90.00,332.50 C90.00,331.49 90.09,330.89 90.49,330.52 C90.11,330.91 90.08,331.59 90.14,332.75 C90.17,333.36 90.19,333.82 90.23,334.13 ZM 144.01 327.86 C143.18,327.71 143.00,326.97 143.00,325.07 C143.00,324.69 143.01,324.36 143.03,324.07 C143.02,324.28 143.02,324.50 143.02,324.75 C143.01,326.68 143.24,327.55 144.01,327.86 Z" fill="rgb(0,22,54)"/>
<path d="M 107.38 338.60 C102.43,336.38 100.53,328.74 103.51,322.98 C105.44,319.25 107.83,318.00 113.04,318.00 C116.44,318.00 117.10,318.30 116.61,319.58 C116.27,320.45 116.00,321.35 116.00,321.58 C116.00,321.81 114.98,322.00 113.72,322.00 C112.47,322.00 110.44,322.70 109.22,323.56 C104.33,326.99 107.98,336.98 113.61,335.56 C115.31,335.14 116.23,335.43 116.65,336.52 C116.98,337.38 117.05,338.29 116.80,338.53 C115.54,339.79 110.13,339.83 107.38,338.60 ZM 173.48 338.60 C169.87,337.03 168.00,333.37 168.00,327.88 C168.00,322.20 172.22,318.00 177.92,318.00 C181.33,318.00 182.00,318.33 182.00,320.00 C182.00,321.61 181.33,322.00 178.62,322.00 C174.49,322.00 173.42,323.28 173.10,328.68 C172.90,332.17 173.27,333.13 175.32,334.48 C176.91,335.51 178.72,335.86 180.39,335.44 C182.55,334.90 183.00,335.13 183.00,336.78 C183.00,340.10 178.77,340.91 173.48,338.60 ZM 224.19 339.33 C221.11,338.68 221.72,335.61 225.01,335.17 C229.50,334.56 229.68,333.14 225.73,329.52 C221.55,325.69 221.05,322.95 224.00,320.00 C225.97,318.03 231.10,317.34 234.40,318.60 C236.76,319.50 234.60,322.97 232.09,322.31 C231.03,322.04 229.40,322.24 228.47,322.76 C227.00,323.58 227.21,324.00 230.14,326.01 C231.99,327.27 234.06,329.00 234.75,329.85 C236.43,331.91 236.34,336.48 234.59,337.93 C232.94,339.29 227.51,340.03 224.19,339.33 ZM 250.75 339.31 C249.79,339.06 249.00,337.98 249.00,336.91 C249.00,335.25 249.61,335.00 253.25,335.23 C256.77,335.45 257.50,335.19 257.50,333.71 C257.50,332.67 255.84,331.00 253.50,329.69 C248.52,326.90 247.44,322.21 251.17,319.60 C255.16,316.80 262.73,317.92 261.51,321.13 C261.12,322.13 259.89,322.47 257.59,322.20 C252.63,321.62 252.37,323.58 257.01,326.51 C259.26,327.93 261.47,330.08 261.92,331.29 C264.03,336.97 258.09,341.23 250.75,339.31 ZM 288.36 339.01 C284.89,337.61 283.00,333.97 283.00,328.70 C283.00,322.15 286.85,318.00 292.92,318.00 C296.33,318.00 297.00,318.33 297.00,320.00 C297.00,321.61 296.33,322.00 293.56,322.00 C287.25,322.00 284.86,328.95 289.55,333.64 C291.44,335.53 292.73,336.03 294.55,335.58 C296.51,335.08 297.00,335.34 297.00,336.87 C297.00,339.82 292.89,340.84 288.36,339.01 ZM 306.01 339.11 C302.25,338.06 300.95,334.50 301.24,326.00 C301.48,319.12 301.68,318.47 303.71,318.19 C305.81,317.89 305.93,318.26 306.21,326.08 C306.44,332.72 306.84,334.50 308.31,335.39 C311.36,337.26 313.00,333.73 313.00,325.31 C313.00,318.67 313.18,318.00 315.00,318.00 C316.84,318.00 317.00,318.67 317.00,326.55 C317.00,334.29 316.77,335.32 314.55,337.55 C312.05,340.05 310.44,340.34 306.01,339.11 ZM 433.25 339.39 C432.37,339.00 432.00,335.79 432.00,328.42 L 432.00 318.00 L 436.43 318.00 C442.99,318.00 445.88,319.46 447.63,323.66 C450.81,331.26 446.77,338.68 439.00,339.48 C436.52,339.74 433.94,339.70 433.25,339.39 ZM 441.02 334.99 C444.50,333.13 444.82,323.91 441.46,322.62 C438.09,321.33 437.00,323.03 437.00,329.61 C437.00,336.17 437.52,336.86 441.02,334.99 ZM 52.22 328.75 L 52.50 318.50 L 58.83 318.20 C64.48,317.93 65.13,318.10 64.82,319.70 C64.57,321.03 63.38,321.58 60.24,321.81 C56.49,322.08 56.00,322.40 56.00,324.56 C56.00,326.74 56.43,327.00 60.00,327.00 C63.33,327.00 64.00,327.33 64.00,329.00 C64.00,330.62 63.33,331.00 60.50,331.00 C57.67,331.00 57.00,331.38 57.00,333.00 C57.00,334.66 57.67,335.00 60.88,335.00 C63.93,335.00 64.88,335.43 65.29,337.00 C65.78,338.86 65.32,339.00 58.87,339.00 L 51.93 339.00 L 52.22 328.75 ZM 69.22 328.75 C69.49,318.98 69.61,318.48 71.75,318.18 C73.93,317.87 74.00,318.12 74.00,326.43 L 74.00 335.00 L 78.50 335.00 C82.33,335.00 83.00,335.30 83.00,337.00 C83.00,338.81 82.33,339.00 75.97,339.00 L 68.93 339.00 L 69.22 328.75 ZM 86.00 328.50 L 86.00 318.00 L 92.00 318.00 C97.33,318.00 98.00,318.22 98.00,320.00 C98.00,321.67 97.33,322.00 94.00,322.00 C90.40,322.00 90.00,322.25 90.00,324.50 C90.00,326.69 90.43,327.00 93.50,327.00 C95.94,327.00 97.00,327.45 97.00,328.50 C97.00,329.55 95.94,330.00 93.50,330.00 C90.43,330.00 90.00,330.31 90.00,332.50 C90.00,334.80 90.37,335.00 94.50,335.00 C98.33,335.00 99.00,335.30 99.00,337.00 C99.00,338.79 98.33,339.00 92.50,339.00 L 86.00 339.00 L 86.00 328.50 ZM 126.00 331.07 C126.00,323.15 125.99,323.13 123.25,322.82 C121.28,322.59 120.41,321.86 120.18,320.25 C119.87,318.07 120.13,318.00 128.00,318.00 C135.83,318.00 136.13,318.09 135.82,320.21 C135.62,321.61 134.58,322.63 133.00,323.00 C130.63,323.55 130.48,324.00 130.21,331.29 C129.95,338.18 129.71,339.00 127.96,339.00 C126.18,339.00 126.00,338.28 126.00,331.07 ZM 139.22 328.75 L 139.50 318.50 L 143.83 318.19 C149.75,317.76 153.00,319.97 153.00,324.40 C153.00,326.25 152.33,328.31 151.52,328.98 C150.23,330.05 150.37,330.78 152.61,334.61 L 155.19 339.00 L 152.62 339.00 C150.68,339.00 149.51,338.03 147.78,335.01 C146.53,332.81 145.16,331.01 144.75,331.01 C144.34,331.00 144.00,332.80 144.00,335.00 C144.00,338.61 143.76,339.00 141.47,339.00 L 138.93 339.00 L 139.22 328.75 ZM 147.82 324.75 C148.09,322.38 147.78,322.00 145.57,322.00 C143.37,322.00 143.00,322.44 143.00,325.07 C143.00,327.68 143.34,328.09 145.25,327.82 C146.86,327.59 147.59,326.72 147.82,324.75 ZM 158.82 336.75 C158.64,335.51 158.65,330.79 158.82,326.25 C159.11,318.88 159.35,318.00 161.07,318.00 C162.85,318.00 163.00,318.80 163.00,328.50 C163.00,338.21 162.85,339.00 161.07,339.00 C159.83,339.00 159.02,338.20 158.82,336.75 ZM 188.76 328.50 C193.51,314.95 194.60,314.82 199.01,327.25 C200.82,332.34 202.51,337.06 202.76,337.75 C203.04,338.54 202.29,339.00 200.72,339.00 C199.07,339.00 198.06,338.32 197.71,337.00 C197.33,335.53 196.35,335.00 194.00,335.00 C191.65,335.00 190.67,335.53 190.29,337.00 C189.95,338.28 188.93,339.00 187.42,339.00 L 185.07 339.00 L 188.76 328.50 ZM 195.29 329.00 C195.00,327.90 194.42,327.00 194.00,327.00 C193.58,327.00 193.00,327.90 192.71,329.00 C192.33,330.46 192.68,331.00 194.00,331.00 C195.32,331.00 195.67,330.46 195.29,329.00 ZM 206.00 328.50 C206.00,318.67 206.13,318.00 208.00,318.00 C210.09,318.00 210.04,317.74 210.39,330.50 L 210.50 334.50 L 215.14 334.80 C219.19,335.06 219.72,335.35 219.28,337.05 C218.84,338.73 217.87,339.00 212.38,339.00 L 206.00 339.00 L 206.00 328.50 ZM 266.22 328.75 L 266.50 318.50 L 272.83 318.20 C278.93,317.91 279.14,317.98 278.83,320.20 C278.56,322.06 277.79,322.56 274.75,322.81 C271.72,323.06 271.00,323.52 271.00,325.19 C271.00,327.00 271.44,327.19 274.50,326.69 C277.70,326.17 278.00,326.34 278.00,328.56 C278.00,330.68 277.54,331.00 274.50,331.00 C271.67,331.00 271.00,331.38 271.00,333.00 C271.00,334.67 271.67,335.00 275.00,335.00 C278.33,335.00 279.00,335.33 279.00,337.00 C279.00,338.80 278.33,339.00 272.47,339.00 L 265.93 339.00 L 266.22 328.75 ZM 321.58 334.75 C321.28,332.41 321.14,327.80 321.27,324.50 L 321.50 318.50 L 326.50 318.21 C329.51,318.03 332.22,318.44 333.31,319.24 C335.60,320.91 335.85,326.58 333.73,328.70 C332.29,330.14 332.37,330.62 334.58,334.12 C337.58,338.88 337.58,339.00 334.48,339.00 C332.59,339.00 331.55,338.13 330.30,335.50 C329.38,333.58 328.04,332.00 327.31,332.00 C326.48,332.00 326.00,333.27 326.00,335.50 C326.00,338.30 325.61,339.00 324.06,339.00 C322.53,339.00 322.01,338.10 321.58,334.75 ZM 329.69 326.75 C331.14,324.80 330.68,322.56 328.75,322.19 C326.79,321.81 325.48,324.19 326.36,326.50 C327.06,328.33 328.43,328.43 329.69,326.75 ZM 341.00 328.50 L 341.00 318.00 L 343.50 318.00 L 346.00 318.00 L 346.00 328.50 L 346.00 339.00 L 343.50 339.00 L 341.00 339.00 L 341.00 328.50 ZM 355.00 331.07 C355.00,323.15 354.99,323.13 352.25,322.82 C350.27,322.59 349.50,321.94 349.50,320.50 C349.50,318.69 350.26,318.47 357.75,318.21 C365.38,317.94 366.00,318.07 366.00,319.88 C366.00,321.25 365.09,322.04 363.00,322.50 L 360.00 323.16 L 360.00 331.08 C360.00,338.86 359.96,339.00 357.50,339.00 C355.04,339.00 355.00,338.86 355.00,331.07 ZM 373.98 334.75 C373.97,331.94 372.96,328.67 370.98,325.09 C367.40,318.58 367.34,318.00 370.30,318.00 C372.02,318.00 373.13,319.08 374.68,322.25 L 376.76 326.50 L 378.56 322.75 C379.89,320.01 381.00,319.00 382.70,319.00 L 385.03 319.00 L 382.01 324.97 C380.15,328.67 379.00,332.48 379.00,334.97 C379.00,338.60 378.75,339.00 376.50,339.00 C374.23,339.00 374.00,338.61 373.98,334.75 ZM 397.22 328.75 C397.48,319.26 397.65,318.50 399.50,318.50 C401.31,318.50 401.53,319.26 401.79,326.75 L 402.08 335.00 L 406.54 335.00 C410.33,335.00 411.00,335.30 411.00,337.00 C411.00,338.81 410.33,339.00 403.97,339.00 L 396.93 339.00 L 397.22 328.75 ZM 419.00 331.07 C419.00,323.15 418.99,323.13 416.25,322.82 C414.28,322.59 413.41,321.86 413.18,320.25 C412.87,318.08 413.14,318.00 420.81,318.00 C427.84,318.00 428.83,318.23 429.27,319.94 C429.80,321.96 428.32,323.00 424.92,323.00 C423.19,323.00 423.00,323.78 423.00,331.00 C423.00,338.33 422.83,339.00 421.00,339.00 C419.17,339.00 419.00,338.33 419.00,331.07 ZM 307.29 292.90 C300.37,291.26 296.32,285.60 288.56,266.75 C284.88,257.81 280.66,247.62 279.18,244.10 C277.71,240.58 274.68,235.68 272.45,233.20 C268.71,229.04 267.96,228.66 262.62,228.22 L 256.83 227.74 L 251.66 232.84 L 246.50 237.93 L 247.00 260.90 L 247.50 283.87 L 250.25 286.74 C255.07,291.76 254.47,292.00 237.00,292.00 C226.51,292.00 221.00,291.64 221.00,290.95 C221.00,290.38 222.13,288.91 223.50,287.70 C225.20,286.21 226.33,283.77 227.00,280.11 C228.43,272.42 228.32,187.14 226.87,181.42 C226.24,178.90 224.71,176.13 223.37,175.08 C218.75,171.44 220.23,171.00 237.00,171.00 C254.24,171.00 255.23,171.35 250.51,175.82 C247.13,179.03 246.88,181.43 247.21,206.42 C247.43,223.38 247.80,228.43 248.81,228.77 C250.41,229.30 290.08,189.27 294.12,183.05 C297.65,177.60 297.73,175.73 294.50,174.00 C293.12,173.26 292.00,172.29 292.00,171.83 C292.00,171.37 298.30,171.00 306.00,171.00 C317.61,171.00 320.00,171.25 320.00,172.46 C320.00,173.33 318.31,174.38 315.84,175.04 C307.13,177.39 301.54,181.80 281.18,202.42 C270.08,213.65 261.00,223.10 261.00,223.42 C261.00,223.74 263.90,224.00 267.45,224.00 C281.74,224.00 289.62,227.91 295.68,238.01 C297.50,241.03 301.76,250.48 305.15,259.00 C315.30,284.49 318.18,289.25 323.47,289.25 C325.88,289.25 326.97,291.28 325.17,292.40 C323.37,293.50 311.27,293.84 307.29,292.90 ZM 157.75 279.99 C154.96,278.26 155.54,273.31 158.92,269.92 C161.50,267.35 162.54,267.00 167.67,267.04 C170.88,267.05 176.43,267.72 180.00,268.50 C186.47,269.93 186.51,269.93 188.70,267.47 C193.14,262.49 193.36,260.03 193.75,208.81 C194.16,154.70 193.66,146.84 189.55,143.30 C188.15,142.09 187.00,140.62 187.00,140.05 C187.00,139.36 192.51,139.00 203.00,139.00 C216.70,139.00 219.00,139.22 219.00,140.53 C219.00,141.37 218.31,142.33 217.46,142.65 C216.62,142.98 215.16,144.65 214.22,146.37 C212.71,149.13 212.44,154.45 211.94,191.50 C211.40,231.74 211.28,233.79 209.09,240.50 C201.27,264.42 185.16,279.71 166.72,280.69 C162.57,280.91 158.76,280.61 157.75,279.99 Z" fill="rgb(215,217,219)"/>
</g>
</svg>